<?xml version="1.0" encoding="UTF-8"?>
<svg width="256px" height="256px" viewBox="0 0 256 256" version="1.1" xmlns="http://www.w3.org/2000/svg" xmlns:xlink="http://www.w3.org/1999/xlink" preserveAspectRatio="xMidYMid">
    <g>
        <path d="M255.942,134.812 C255.942,143.285 254.992,151.552 253.242,159.418 C251.493,167.284 248.993,174.698 245.794,181.661 C242.595,188.623 238.745,195.135 234.296,201.047 C229.847,206.959 224.948,212.32 219.599,217.081 C214.25,221.842 208.451,226.002 202.252,229.513 C196.053,233.024 189.554,235.885 182.755,238.045 C175.956,240.205 168.957,241.765 161.808,242.675 C154.659,243.585 147.51,244.04 140.361,244.04 C133.212,244.04 126.063,243.585 118.914,242.675 C111.765,241.765 104.766,240.205 97.967,238.045 C91.168,235.885 84.669,233.024 78.47,229.513 C72.271,226.002 66.472,221.842 61.123,217.081 C55.774,212.32 50.875,206.959 46.426,201.047 C41.977,195.135 38.127,188.623 34.928,181.661 C31.729,174.698 29.229,167.284 27.48,159.418 C25.73,151.552 24.78,143.285 24.78,134.812 C24.78,126.339 25.73,118.072 27.48,110.206 C29.229,102.34 31.729,94.926 34.928,87.963 C38.127,81.001 41.977,74.489 46.426,68.577 C50.875,62.665 55.774,57.304 61.123,52.543 C66.472,47.782 72.271,43.622 78.47,40.111 C84.669,36.6 91.168,33.739 97.967,31.579 C104.766,29.419 111.765,27.859 118.914,26.949 C126.063,26.039 133.212,25.584 140.361,25.584 C147.51,25.584 154.659,26.039 161.808,26.949 C168.957,27.859 175.956,29.419 182.755,31.579 C189.554,33.739 196.053,36.6 202.252,40.111 C208.451,43.622 214.25,47.782 219.599,52.543 C224.948,57.304 229.847,62.665 234.296,68.577 C238.745,74.489 242.595,81.001 245.794,87.963 C248.993,94.926 251.493,102.34 253.242,110.206 C254.992,118.072 255.942,126.339 255.942,134.812 Z" fill="#2A73CC"></path>
        <path d="M165.493,134.812 C165.493,129.181 164.093,124.121 161.293,119.63 C158.493,115.139 154.793,111.628 150.193,109.098 C145.593,106.567 140.693,105.302 135.493,105.302 C130.293,105.302 125.393,106.567 120.793,109.098 C116.193,111.628 112.493,115.139 109.693,119.63 C106.893,124.121 105.493,129.181 105.493,134.812 C105.493,140.443 106.893,145.503 109.693,149.994 C112.493,154.485 116.193,157.996 120.793,160.526 C125.393,163.057 130.293,164.322 135.493,164.322 C140.693,164.322 145.593,163.057 150.193,160.526 C154.793,157.996 158.493,154.485 161.293,149.994 C164.093,145.503 165.493,140.443 165.493,134.812 Z M175.493,134.812 C175.493,142.375 173.593,149.187 169.793,155.25 C165.993,161.313 160.893,166.072 154.493,169.528 C148.093,172.984 141.193,174.712 133.793,174.712 C128.193,174.712 122.893,173.752 117.893,171.832 C112.893,169.912 108.493,167.231 104.693,163.79 L104.693,207.302 L94.693,207.302 L94.693,95.822 L104.693,95.822 L104.693,105.302 C108.493,101.861 112.893,99.18 117.893,97.26 C122.893,95.34 128.193,94.38 133.793,94.38 C141.193,94.38 148.093,96.108 154.493,99.564 C160.893,103.02 165.993,107.779 169.793,113.842 C173.593,119.905 175.493,126.717 175.493,134.812 Z" fill="#FFFFFF"></path>
        <path d="M80.361,134.812 C80.361,140.443 81.761,145.503 84.561,149.994 C87.361,154.485 91.061,157.996 95.661,160.526 C100.261,163.057 105.161,164.322 110.361,164.322 C115.561,164.322 120.461,163.057 125.061,160.526 C129.661,157.996 133.361,154.485 136.161,149.994 C138.961,145.503 140.361,140.443 140.361,134.812 C140.361,129.181 138.961,124.121 136.161,119.63 C133.361,115.139 129.661,111.628 125.061,109.098 C120.461,106.567 115.561,105.302 110.361,105.302 C105.161,105.302 100.261,106.567 95.661,109.098 C91.061,111.628 87.361,115.139 84.561,119.63 C81.761,124.121 80.361,129.181 80.361,134.812 Z M70.361,134.812 C70.361,126.717 72.261,119.905 76.061,113.842 C79.861,107.779 84.961,103.02 91.361,99.564 C97.761,96.108 104.661,94.38 112.061,94.38 C117.661,94.38 122.961,95.34 127.961,97.26 C132.961,99.18 137.361,101.861 141.161,105.302 L141.161,95.822 L151.161,95.822 L151.161,174.712 L141.161,174.712 L141.161,163.79 C137.361,167.231 132.961,169.912 127.961,171.832 C122.961,173.752 117.661,174.712 112.061,174.712 C104.661,174.712 97.761,172.984 91.361,169.528 C84.961,166.072 79.861,161.313 76.061,155.25 C72.261,149.187 70.361,142.375 70.361,134.812 Z" fill="#FFFFFF"></path>
    </g>
</svg>
