<?xml version="1.0" encoding="UTF-8"?>
<svg width="256px" height="256px" viewBox="0 0 256 256" version="1.1" xmlns="http://www.w3.org/2000/svg" xmlns:xlink="http://www.w3.org/1999/xlink" preserveAspectRatio="xMidYMid">
    <g>
        <path d="M128,0 C57.28,0 0,57.28 0,128 C0,198.72 57.28,256 128,256 C198.72,256 256,198.72 256,128 C256,57.28 198.72,0 128,0 Z M193.6,173.44 C193.6,173.44 182.4,192 160,192 C137.6,192 128,176 128,176 C128,176 118.4,192 96,192 C73.6,192 62.4,173.44 62.4,173.44 C62.4,173.44 51.2,153.6 51.2,128 C51.2,102.4 62.4,83.84 62.4,83.84 C62.4,83.84 73.6,64 96,64 C118.4,64 128,80 128,80 C128,80 137.6,64 160,64 C182.4,64 193.6,83.84 193.6,83.84 C193.6,83.84 204.8,102.4 204.8,128 C204.8,153.6 193.6,173.44 193.6,173.44 Z" fill="#A435F0"></path>
        <path d="M113.6,128 C113.6,136.96 120.32,144 128,144 C135.68,144 142.4,136.96 142.4,128 C142.4,119.04 135.68,112 128,112 C120.32,112 113.6,119.04 113.6,128 Z" fill="#A435F0"></path>
        <path d="M102.4,128 C102.4,113.6 113.6,102.4 128,102.4 C142.4,102.4 153.6,113.6 153.6,128 C153.6,142.4 142.4,153.6 128,153.6 C113.6,153.6 102.4,142.4 102.4,128 Z M128,144 C135.68,144 142.4,136.96 142.4,128 C142.4,119.04 135.68,112 128,112 C120.32,112 113.6,119.04 113.6,128 C113.6,136.96 120.32,144 128,144 Z" fill="#FFFFFF"></path>
        <path d="M81.6,128 C81.6,136.96 88.32,144 96,144 C103.68,144 110.4,136.96 110.4,128 C110.4,119.04 103.68,112 96,112 C88.32,112 81.6,119.04 81.6,128 Z" fill="#A435F0"></path>
        <path d="M70.4,128 C70.4,113.6 81.6,102.4 96,102.4 C110.4,102.4 121.6,113.6 121.6,128 C121.6,142.4 110.4,153.6 96,153.6 C81.6,153.6 70.4,142.4 70.4,128 Z M96,144 C103.68,144 110.4,136.96 110.4,128 C110.4,119.04 103.68,112 96,112 C88.32,112 81.6,119.04 81.6,128 C81.6,136.96 88.32,144 96,144 Z" fill="#FFFFFF"></path>
        <path d="M145.6,128 C145.6,136.96 152.32,144 160,144 C167.68,144 174.4,136.96 174.4,128 C174.4,119.04 167.68,112 160,112 C152.32,112 145.6,119.04 145.6,128 Z" fill="#A435F0"></path>
        <path d="M134.4,128 C134.4,113.6 145.6,102.4 160,102.4 C174.4,102.4 185.6,113.6 185.6,128 C185.6,142.4 174.4,153.6 160,153.6 C145.6,153.6 134.4,142.4 134.4,128 Z M160,144 C167.68,144 174.4,136.96 174.4,128 C174.4,119.04 167.68,112 160,112 C152.32,112 145.6,119.04 145.6,128 C145.6,136.96 152.32,144 160,144 Z" fill="#FFFFFF"></path>
    </g>
</svg>
